<?xml version="1.0" encoding="UTF-8" standalone="no"?>
<svg width="300px" height="48px" viewBox="0 0 300 48" version="1.1" xmlns="http://www.w3.org/2000/svg" xmlns:xlink="http://www.w3.org/1999/xlink">
    <!-- Generator: Sketch 3.8.3 (29802) - http://www.bohemiancoding.com/sketch -->
    <title>300*48</title>
    <desc>Created with Sketch.</desc>
    <defs>
        <path d="M145.475997,0.555298473 L145.475997,46.9782508 L154.524003,46.9782508 L154.524003,44.3350301 C156.780473,46.5784359 160.143057,47.9333642 163.572008,47.9333642 C171.381167,47.9333642 177.730256,41.0032392 177.730256,32.4294308 L177.730256,30.163813 C177.730256,21.6122166 171.381167,14.6598797 163.572008,14.6598797 C160.120935,14.6598797 156.780473,16.014808 154.524003,18.2582138 L154.524003,0 L145.475997,0.555298473 L145.475997,0.555298473 Z M154.546125,32.4294308 L154.546125,30.186025 C154.546125,25.9879685 157.975076,22.5673299 162.178305,22.5673299 C166.403658,22.5673299 169.810486,25.9657566 169.810486,30.186025 L169.810486,32.4294308 C169.810486,36.6274873 166.381535,40.0481259 162.178305,40.0481259 C157.952953,40.0481259 154.546125,36.6274873 154.546125,32.4294308 L154.546125,32.4294308 Z M223.943662,1.93243869 C222.926038,2.84312818 222.417226,4.08699676 222.417226,5.64183248 C222.417226,7.21888015 222.926038,8.46274873 223.943662,9.35122628 C224.961286,10.2619158 226.155888,10.7061546 227.527468,10.7061546 C228.899049,10.7061546 230.093651,10.2619158 231.111275,9.35122628 C232.128899,8.44053679 232.637711,7.19666821 232.637711,5.64183248 C232.637711,4.06478482 232.128899,2.82091624 231.111275,1.93243869 C230.093651,1.02174919 228.899049,0.577510412 227.527468,0.577510412 C226.155888,0.577510412 224.961286,1.02174919 223.943662,1.93243869 L223.943662,1.93243869 Z M183.194455,1.93243869 C182.176831,2.84312818 181.668019,4.08699676 181.668019,5.64183248 C181.668019,7.21888015 182.176609,8.46274873 183.194455,9.35122628 C184.212079,10.2619158 185.406681,10.7061546 186.778261,10.7061546 C188.149841,10.7061546 189.344444,10.2619158 190.362068,9.35122628 C191.379692,8.44053679 191.888504,7.19666821 191.888504,5.64183248 C191.888504,4.06478482 191.379692,2.82091624 190.362068,1.93243869 C189.344444,1.02174919 188.149841,0.577510412 186.778261,0.577510412 C185.406681,0.577510412 184.212079,1.02174919 183.194455,1.93243869 L183.194455,1.93243869 Z M0,6.73021749 L0,34.2063859 C0,36.2498843 0.199100361,38.1156872 0.575178822,39.8037945 C0.951257282,41.4919019 1.63704742,42.913466 2.61042696,44.1129107 C3.5838065,45.2901435 4.88901998,46.2230449 6.50394514,46.8894031 C8.11887029,47.5557612 10.1762407,47.8889403 12.6539341,47.8889403 C14.6006932,47.8889403 16.2377406,47.7334567 17.5871986,47.4002776 C18.9145343,47.0893105 20.573704,46.6228598 21.6798171,46.178621 L19.8215471,39.2929199 C18.9587789,39.6038871 18.1623774,39.8260065 17.1226311,40.003702 C16.0828847,40.1813975 15.0873829,40.2702453 14.1140034,40.2702453 C12.0787553,40.2702453 10.7292972,39.7149468 10.0656294,38.5821379 C9.40196151,37.449329 9.07012757,35.9611291 9.07012757,34.0731143 L9.07012757,23.3003239 L20.3967259,23.3003239 L20.3967259,15.4150856 L9.04800531,15.4150856 L9.04800531,6.08607126 L0,6.73021749 L0,6.73021749 Z M196.998746,6.81906525 L196.998746,34.3174456 C196.998746,36.360944 197.197847,38.2267469 197.573925,39.9148542 C197.950004,41.6029616 198.635794,43.0245257 199.609173,44.2239704 C200.582553,45.4012031 201.887545,46.3341046 203.502692,47.0004627 C205.117617,47.6668209 207.174987,48 209.652459,48 C211.59944,48 213.236487,47.8445164 214.585945,47.5113373 C215.913281,47.2003702 217.57245,46.7339195 218.678564,46.2896807 L216.820072,39.4039796 C215.935403,39.7149468 215.116879,39.9370662 214.099255,40.1147617 C213.059509,40.2924572 212.064007,40.381305 211.090628,40.381305 C209.055379,40.381305 207.705921,39.8260065 207.042254,38.6931976 C206.378586,37.5603887 206.046752,36.0721888 206.046752,34.184174 L206.046752,23.3003239 L217.37335,23.3003239 L217.37335,15.4150856 L206.046752,15.4150856 L206.046752,6.19713096 L196.998746,6.81906525 L196.998746,6.81906525 Z M288.120345,14.6598797 C286.062975,14.7043036 283.585281,15.9703841 281.328811,18.0360944 L281.328811,15.4150856 L272.280805,15.4150856 L272.280805,46.9782508 L281.328811,46.9782508 L281.328811,27.0541416 C281.328811,24.4553447 283.762259,23.1004165 285.863874,23.1004165 C288.761891,23.1226284 290.951995,25.1439149 290.951995,27.6094401 L290.951995,46.9782508 L300,46.9782508 L300,29.3197594 C299.977878,26.898658 299.889389,24.8995835 299.424821,23.1226284 C298.960254,21.3234614 298.119608,19.8796853 297.16835,18.6136048 C296.128383,17.2211384 293.092766,14.65677 288.415899,14.6565479 C288.317897,14.6565479 288.219674,14.6576585 288.120345,14.6598797 L288.120345,14.6598797 Z M110.943146,14.6598797 C108.332719,14.7265155 105.855025,16.014808 103.576432,18.0360944 L103.576432,15.4150856 L94.5284271,15.4150856 L94.5284271,46.9782508 L103.576432,46.9782508 L103.576432,27.631652 C103.576432,25.1883387 105.744414,23.1226284 108.664553,23.1226284 C111.031635,23.1226284 113.199617,25.1883387 113.199617,27.631652 L113.199617,46.9782508 L122.247622,46.9782508 L122.247622,27.631652 C122.247622,25.1883387 124.415604,23.1226284 127.335742,23.1226284 C129.702824,23.1226284 131.870806,25.1883387 131.870806,27.631652 L131.870806,46.9782508 L140.918811,46.9782508 L140.918811,29.3197594 C140.918811,26.92087 140.786078,24.9217955 140.343632,23.1226284 C139.901187,21.3012494 139.038419,19.9463211 138.087162,18.6136048 C137.158027,17.2808885 133.928176,14.54882 129.614335,14.6598797 C126.273874,14.7487274 122.756434,16.9254975 120.56633,20.3017122 C120.057518,19.5242943 119.858196,19.2133272 119.438095,18.6136048 C118.462724,17.2426839 115.385296,14.6565479 111.204631,14.6565479 C111.117912,14.6565479 111.030971,14.6576585 110.943146,14.6598797 L110.943146,14.6598797 Z M236.575474,30.163813 L236.575474,32.4294308 C236.575474,40.9810273 243.543986,47.9333642 252.149546,47.9333642 C260.755107,47.9333642 267.723619,41.0032392 267.723619,32.4294308 L267.723619,30.163813 C267.723619,21.6122166 260.755107,14.6598797 252.149546,14.6598797 C243.543986,14.6598797 236.575474,21.5900046 236.575474,30.163813 L236.575474,30.163813 Z M244.517366,32.4294308 L244.517366,30.186025 C244.517366,25.9879685 247.857828,22.5673299 252.08318,22.5673299 C256.308532,22.5673299 259.803849,25.9657566 259.803849,30.186025 L259.803849,32.4294308 C259.803849,36.6274873 256.308532,40.0481259 252.08318,40.0481259 C247.857828,40.0481259 244.517366,36.6274873 244.517366,32.4294308 L244.517366,32.4294308 Z M57.163926,30.163813 L57.163926,32.4294308 C57.163926,40.9810273 63.490893,47.9333642 71.3221739,47.9333642 C74.7732468,47.9333642 78.1137084,46.5784359 80.3701792,44.3350301 L80.3701792,46.9782508 L89.4181845,46.9782508 L89.4181845,15.4150856 L80.3701792,15.4150856 L80.3701792,18.2582138 C78.1137084,16.014808 74.7511245,14.6598797 71.3221739,14.6598797 C63.5130153,14.6598797 57.163926,21.6122166 57.163926,30.163813 L57.163926,30.163813 Z M65.1058182,32.4294308 L65.1058182,30.186025 C65.1058182,25.9657566 68.5347688,22.5673299 72.7379987,22.5673299 C76.9633508,22.5673299 80.3701792,25.9657566 80.3701792,30.186025 L80.3701792,32.4294308 C80.3701792,36.6274873 76.9412285,40.0481259 72.7379987,40.0481259 C68.5126466,40.0481259 65.1058182,36.6496992 65.1058182,32.4294308 L65.1058182,32.4294308 Z M23.2062532,31.5631652 C23.2062532,41.6251735 29.1792641,48 39.0457931,48 C46.7664627,48 52.5624954,43.5798242 53.7570976,37.9379917 L45.2621488,37.9379917 C44.4215028,39.0708006 42.2977657,41.2697825 39.0457931,41.2697825 C34.7540742,41.2697825 31.6790797,38.182323 31.6790797,34.3840814 L31.6790797,34.0064785 L53.7570976,34.0064785 L53.7570976,30.4303563 C53.7792198,20.8570106 47.8725758,14.6598797 38.4927365,14.6598797 C29.2235086,14.6598797 23.2062532,21.2124017 23.2062532,31.5631652 L23.2062532,31.5631652 Z M38.4927365,21.6122166 C42.2535211,21.6122166 45.2842711,24.4331328 45.2842711,28.3868579 L31.701202,28.3868579 C31.701202,24.4331328 34.7319519,21.6122166 38.4927365,21.6122166 L38.4927365,21.6122166 Z M223.014527,46.9782508 L232.062532,46.9782508 L232.062532,15.4150856 L223.014527,15.4150856 L223.014527,46.9782508 L223.014527,46.9782508 Z M182.243197,46.9782508 L191.291203,46.9782508 L191.291203,15.4150856 L182.243197,15.4150856 L182.243197,46.9782508 L182.243197,46.9782508 Z" id="path-1"></path>
    </defs>
    <g id="Page-1" stroke="none" stroke-width="1" fill="none" fill-rule="evenodd">
        <g id="300*48">
            <mask id="mask-2" fill="white">
                <use xlink:href="#path-1"></use>
            </mask>
            <use id="Clip-2" fill="#383838" xlink:href="#path-1"></use>
        </g>
    </g>
</svg>